<svg width="31" height="31" viewBox="0 0 31 31" fill="none" xmlns="http://www.w3.org/2000/svg">
<path d="M25.9599 2.52333C25.8104 2.40602 25.6061 2.38899 25.4377 2.47981L2.18768 15.0736C2.01928 15.1644 1.92089 15.3479 1.93981 15.539C1.95684 15.7301 2.0855 15.8928 2.26715 15.9515L8.87622 18.1085L8.23669 24.6513C8.21588 24.8595 8.33129 25.0562 8.52239 25.1376C8.58294 25.166 8.64917 25.1792 8.7135 25.1792C8.84783 25.1792 8.98028 25.1225 9.07299 25.0165L13.2413 20.3071L19.5173 26.4942C19.6082 26.5831 19.7292 26.6323 19.8541 26.6323C19.8976 26.6323 19.9412 26.6248 19.9847 26.6134C20.1493 26.568 20.278 26.4356 20.3196 26.2691L26.1321 3.01906C26.1775 2.83363 26.1113 2.63875 25.9599 2.52333ZM9.84875 18.0195L19.2997 10.3774L12.8591 19.2948L9.3341 23.2739L9.84875 18.0195Z" fill="white"/>
</svg>
